<svg xmlns="http://www.w3.org/2000/svg" viewBox="0 0 120 40" fill="none">
  <defs>
    <linearGradient id="asg-grad" x1="0%" y1="0%" x2="100%" y2="100%">
      <stop offset="0%" stop-color="#8B5CF6"/>
      <stop offset="100%" stop-color="#6366F1"/>
    </linearGradient>
  </defs>
  <!-- Icon: shield with $ -->
  <rect x="4" y="6" width="28" height="28" rx="6" fill="url(#asg-grad)" opacity="0.15"/>
  <path d="M18 10c-5.5 0-10 4.5-10 10s4.5 10 10 10 10-4.5 10-10S23.5 10 18 10zm0 17.5c-0.7 0-1.3-0.1-1.3-0.1v1.1h-1.4v-1.2c-1.4-0.2-2.5-0.9-2.5-0.9l0.7-1.6s1.1 0.7 2.2 0.8v-2.6c-2-0.7-3-1.6-3-3.2 0-1.5 1.2-2.7 3-3v-1.1h1.4v1c1.1 0.1 2 0.5 2 0.5l-0.6 1.6s-0.8-0.4-1.8-0.5v2.4c2 0.7 3.2 1.5 3.2 3.2 0 1.6-1.2 2.8-3.2 3.1v1.1h-0.1 1.4v0.4z" fill="#8B5CF6"/>
  <!-- Text: ASG Pay -->
  <text x="38" y="18" font-family="Inter, system-ui, sans-serif" font-size="13" font-weight="700" fill="#E2E8F0">ASG</text>
  <text x="38" y="32" font-family="Inter, system-ui, sans-serif" font-size="13" font-weight="400" fill="#8B5CF6">Pay</text>
</svg>
