<svg xmlns="http://www.w3.org/2000/svg" viewBox="0 0 120 40" fill="none">
  <path d="M13.976 16.176c0-1.28 1.056-1.776 2.8-1.776 2.504 0 5.664.76 8.168 2.12V9.2c-2.736-1.08-5.44-1.504-8.168-1.504C10.736 7.696 6 11.176 6 17.016c0 9.056 12.472 7.608 12.472 11.52 0 1.512-1.312 2.008-3.144 2.008-2.72 0-6.2-1.12-8.96-2.624v7.4c3.048 1.312 6.128 1.876 8.96 1.876 6.168 0 10.408-3.048 10.408-8.984-.032-9.776-12.552-8.032-12.552-11.744l-.208-.292z" fill="#635BFF"/>
  <path d="M42.248 8.488L36.832 9.64V15.2H42.248V22.04H36.832V30.28c0 3.448 1.776 4.624 4.408 4.624a10.6 10.6 0 003.216-.584v6.56a14.2 14.2 0 01-5.336.888c-5.888 0-9.648-3.504-9.648-9.4V22.04h-3.96V15.2h3.96V10.048l7.776-1.56z" fill="#635BFF"/>
  <path d="M53.56 15.2l-.432 7.264V35.2h-7.768V15.2h8.2z" fill="#635BFF"/>
  <path d="M49.216 13.016a4.384 4.384 0 004.4-4.4 4.384 4.384 0 00-4.4-4.4 4.384 4.384 0 00-4.4 4.4 4.384 4.384 0 004.4 4.4z" fill="#635BFF"/>
  <path d="M66.816 31.352c0-1.432.616-2.456 2.256-2.456 1.648 0 3.888.76 5.704 1.888v-6.08c-2.04-.848-4.056-1.192-5.704-1.192-5.672 0-9.68 3.12-9.68 8.12 0 7.952 10.688 6.568 10.688 9.936 0 1.64-1.312 2.224-3.2 2.224-2.504 0-5.624-1.056-7.92-2.344v6.224c2.336.976 4.704 1.4 7.92 1.4 5.448 0 10.488-2.264 10.488-8.36 0-8.344-11.552-6.68-11.552-9.36z" fill="#635BFF"/>
  <path fill="#635BFF" d="M84 14.8h7.776V35.2H84z"/>
  <path d="M87.776 12.616a3.932 3.932 0 003.952-3.952 3.932 3.932 0 00-3.952-3.952 3.932 3.932 0 00-3.952 3.952 3.932 3.932 0 003.952 3.952z" fill="#635BFF"/>
  <path d="M103.568 15.2c-4.624 0-8.76 3.216-8.76 10.504 0 6.576 3.448 9.784 8.216 9.784a8.616 8.616 0 005.144-1.664l-.272 1.376H114.8V7.696h-7.776V17.04a7.888 7.888 0 00-3.456-.84zm1.696 14.04c-2.12 0-3.696-1.312-3.696-4.048 0-2.88 1.576-4.48 3.696-4.48 1.36 0 2.4.504 3.456 1.36v5.848c-1.08.824-2.12 1.32-3.456 1.32z" fill="#635BFF"/>
</svg>
